<mxfile host="65bd71144e">
    <diagram id="19won02qPmN6lNzk022V" name="Page-1">
        <mxGraphModel dx="2612" dy="1181" grid="1" gridSize="10" guides="1" tooltips="1" connect="1" arrows="1" fold="1" page="1" pageScale="1" pageWidth="1654" pageHeight="1169" math="0" shadow="0">
            <root>
                <mxCell id="0"/>
                <mxCell id="1" parent="0"/>
                <mxCell id="iErzHPLrqDlp6vIxeZyp-27" value="" style="whiteSpace=wrap;html=1;" vertex="1" parent="1">
                    <mxGeometry x="210" y="1230" width="430" height="230" as="geometry"/>
                </mxCell>
                <mxCell id="6" value="Visitor signs up/&lt;br&gt;logs in to PeerPrep" style="edgeStyle=orthogonalEdgeStyle;rounded=0;html=1;exitX=0;exitY=0.75;exitDx=0;exitDy=0;exitPerimeter=0;dashed=1;" edge="1" parent="1" source="QH11MDZz-h4O8WsSvhu4-1">
                    <mxGeometry x="-0.4757" y="-20" relative="1" as="geometry">
                        <mxPoint x="360" y="460" as="targetPoint"/>
                        <mxPoint as="offset"/>
                    </mxGeometry>
                </mxCell>
                <mxCell id="8" value="User explores &lt;br&gt;questions" style="edgeStyle=orthogonalEdgeStyle;rounded=0;html=1;exitX=0.5;exitY=1;exitDx=0;exitDy=0;exitPerimeter=0;entryX=1;entryY=0.25;entryDx=0;entryDy=0;entryPerimeter=0;dashed=1;" edge="1" parent="1" source="QH11MDZz-h4O8WsSvhu4-1" target="QH11MDZz-h4O8WsSvhu4-36">
                    <mxGeometry x="-0.9058" y="53" relative="1" as="geometry">
                        <mxPoint as="offset"/>
                    </mxGeometry>
                </mxCell>
                <mxCell id="25" value="H2) User requests history" style="edgeStyle=orthogonalEdgeStyle;rounded=0;html=1;exitX=0.25;exitY=1;exitDx=0;exitDy=0;exitPerimeter=0;entryX=1;entryY=0.5;entryDx=0;entryDy=0;entryPerimeter=0;endArrow=classic;endFill=1;" edge="1" parent="1" source="QH11MDZz-h4O8WsSvhu4-1" target="QH11MDZz-h4O8WsSvhu4-8">
                    <mxGeometry x="-0.5141" y="-20" relative="1" as="geometry">
                        <Array as="points">
                            <mxPoint x="777" y="380"/>
                            <mxPoint x="500" y="380"/>
                            <mxPoint x="500" y="775"/>
                        </Array>
                        <mxPoint as="offset"/>
                    </mxGeometry>
                </mxCell>
                <object placeholders="1" c4Name="Visitor/User" c4Type="Person" c4Description="Visitor -&gt; No account&#10;User -&gt; Has account" label="&lt;font style=&quot;font-size: 16px&quot;&gt;&lt;b&gt;%c4Name%&lt;/b&gt;&lt;/font&gt;&lt;div&gt;[%c4Type%]&lt;/div&gt;&lt;br&gt;&lt;div&gt;&lt;font style=&quot;font-size: 11px&quot;&gt;&lt;font color=&quot;#cccccc&quot;&gt;%c4Description%&lt;/font&gt;&lt;/div&gt;" id="QH11MDZz-h4O8WsSvhu4-1">
                    <mxCell style="html=1;fontSize=11;dashed=0;whitespace=wrap;fillColor=#083F75;strokeColor=#06315C;fontColor=#ffffff;shape=mxgraph.c4.person2;align=center;metaEdit=1;points=[[0.5,0,0],[1,0.5,0],[1,0.75,0],[0.75,1,0],[0.5,1,0],[0.25,1,0],[0,0.75,0],[0,0.5,0]];resizable=0;" parent="1" vertex="1">
                        <mxGeometry x="727" y="60" width="200" height="180" as="geometry"/>
                    </mxCell>
                </object>
                <mxCell id="QH11MDZz-h4O8WsSvhu4-56" value="Matches users with &lt;br&gt;the same criteria" style="edgeStyle=orthogonalEdgeStyle;rounded=0;orthogonalLoop=1;jettySize=auto;html=1;exitX=0.5;exitY=1;exitDx=0;exitDy=0;exitPerimeter=0;startArrow=none;startFill=0;endArrow=classic;endFill=1;" parent="1" source="QH11MDZz-h4O8WsSvhu4-4" edge="1">
                    <mxGeometry x="-0.6216" y="60" relative="1" as="geometry">
                        <mxPoint x="1160" y="560" as="targetPoint"/>
                        <Array as="points">
                            <mxPoint x="670" y="730"/>
                            <mxPoint x="1110" y="730"/>
                            <mxPoint x="1110" y="560"/>
                        </Array>
                        <mxPoint as="offset"/>
                    </mxGeometry>
                </mxCell>
                <object placeholders="1" c4Type="Matching" c4Container="Container " c4Technology="Redis, Websocket" c4Description="Matches users based on difficulty and/or topics selected" label="&lt;font style=&quot;font-size: 16px&quot;&gt;&lt;b&gt;%c4Type%&lt;/font&gt;&lt;div&gt;[%c4Container%:&amp;nbsp;%c4Technology%]&lt;/div&gt;&lt;br&gt;&lt;div&gt;&lt;font style=&quot;font-size: 11px&quot;&gt;&lt;font color=&quot;#E6E6E6&quot;&gt;%c4Description%&lt;/font&gt;&lt;/div&gt;" id="QH11MDZz-h4O8WsSvhu4-4">
                    <mxCell style="shape=hexagon;size=50;perimeter=hexagonPerimeter2;whiteSpace=wrap;html=1;fixedSize=1;rounded=1;labelBackgroundColor=none;fillColor=#23A2D9;fontSize=12;fontColor=#ffffff;align=center;strokeColor=#0E7DAD;metaEdit=1;points=[[0.5,0,0],[1,0.25,0],[1,0.5,0],[1,0.75,0],[0.5,1,0],[0,0.75,0],[0,0.5,0],[0,0.25,0]];resizable=0;" parent="1" vertex="1">
                        <mxGeometry x="570" y="480" width="200" height="170" as="geometry"/>
                    </mxCell>
                </object>
                <mxCell id="QH11MDZz-h4O8WsSvhu4-29" style="edgeStyle=orthogonalEdgeStyle;rounded=0;orthogonalLoop=1;jettySize=auto;html=1;exitX=0.003;exitY=0.289;exitDx=0;exitDy=0;exitPerimeter=0;endArrow=none;endFill=0;startArrow=classic;startFill=1;" parent="1" source="QH11MDZz-h4O8WsSvhu4-26" edge="1">
                    <mxGeometry relative="1" as="geometry">
                        <mxPoint x="430" y="920" as="targetPoint"/>
                        <Array as="points">
                            <mxPoint x="430" y="1005"/>
                        </Array>
                    </mxGeometry>
                </mxCell>
                <mxCell id="QH11MDZz-h4O8WsSvhu4-30" value="User data" style="edgeLabel;html=1;align=center;verticalAlign=middle;resizable=0;points=[];" parent="QH11MDZz-h4O8WsSvhu4-29" vertex="1" connectable="0">
                    <mxGeometry x="-0.2822" y="-4" relative="1" as="geometry">
                        <mxPoint y="-6" as="offset"/>
                    </mxGeometry>
                </mxCell>
                <mxCell id="QH11MDZz-h4O8WsSvhu4-54" value="Updates question info" style="edgeStyle=orthogonalEdgeStyle;rounded=0;orthogonalLoop=1;jettySize=auto;html=1;exitX=0.5;exitY=0;exitDx=0;exitDy=0;exitPerimeter=0;entryX=0.5;entryY=1;entryDx=0;entryDy=0;entryPerimeter=0;startArrow=none;startFill=0;endArrow=classic;endFill=1;" parent="1" source="QH11MDZz-h4O8WsSvhu4-26" target="QH11MDZz-h4O8WsSvhu4-36" edge="1">
                    <mxGeometry relative="1" as="geometry"/>
                </mxCell>
                <object placeholders="1" c4Type="Main Data" c4Container="Container " c4Technology="PlanetScale" c4Description="Stores user info (auth, history), and questions from LeetCode" label="&lt;font style=&quot;font-size: 16px&quot;&gt;&lt;b&gt;%c4Type%&lt;/font&gt;&lt;div&gt;[%c4Container%:&amp;nbsp;%c4Technology%]&lt;/div&gt;&lt;br&gt;&lt;div&gt;&lt;font style=&quot;font-size: 11px&quot;&gt;&lt;font color=&quot;#E6E6E6&quot;&gt;%c4Description%&lt;/font&gt;&lt;/div&gt;" id="QH11MDZz-h4O8WsSvhu4-26">
                    <mxCell style="shape=cylinder3;size=15;whiteSpace=wrap;html=1;boundedLbl=1;rounded=0;labelBackgroundColor=none;fillColor=#23A2D9;fontSize=12;fontColor=#ffffff;align=center;strokeColor=#0E7DAD;metaEdit=1;points=[[0.5,0,0],[1,0.25,0],[1,0.5,0],[1,0.75,0],[0.5,1,0],[0,0.75,0],[0,0.5,0],[0,0.25,0]];resizable=0;" parent="1" vertex="1">
                        <mxGeometry x="550" y="970" width="240" height="120" as="geometry"/>
                    </mxCell>
                </object>
                <mxCell id="QH11MDZz-h4O8WsSvhu4-27" value="" style="group" parent="1" vertex="1" connectable="0">
                    <mxGeometry x="240" y="460" width="240" height="460" as="geometry"/>
                </mxCell>
                <mxCell id="QH11MDZz-h4O8WsSvhu4-31" style="edgeStyle=orthogonalEdgeStyle;rounded=0;orthogonalLoop=1;jettySize=auto;html=1;exitX=0.5;exitY=1;exitDx=0;exitDy=0;exitPerimeter=0;entryX=0.5;entryY=0;entryDx=0;entryDy=0;entryPerimeter=0;startArrow=none;startFill=0;endArrow=classic;endFill=1;" parent="QH11MDZz-h4O8WsSvhu4-27" source="QH11MDZz-h4O8WsSvhu4-3" target="QH11MDZz-h4O8WsSvhu4-8" edge="1">
                    <mxGeometry relative="1" as="geometry"/>
                </mxCell>
                <object placeholders="1" c4Type="Authentication" c4Container="Container " c4Technology="NestJS, JWT, Nodemailer" c4Description="User login, signup, &#10;reset/change password" label="&lt;font style=&quot;font-size: 16px&quot;&gt;&lt;b&gt;%c4Type%&lt;/font&gt;&lt;div&gt;[%c4Container%:&amp;nbsp;%c4Technology%]&lt;/div&gt;&lt;br&gt;&lt;div&gt;&lt;font style=&quot;font-size: 11px&quot;&gt;&lt;font color=&quot;#E6E6E6&quot;&gt;%c4Description%&lt;/font&gt;&lt;/div&gt;" id="QH11MDZz-h4O8WsSvhu4-3">
                    <mxCell style="shape=hexagon;size=50;perimeter=hexagonPerimeter2;whiteSpace=wrap;html=1;fixedSize=1;rounded=1;labelBackgroundColor=none;fillColor=#23A2D9;fontSize=12;fontColor=#ffffff;align=center;strokeColor=#0E7DAD;metaEdit=1;points=[[0.5,0,0],[1,0.25,0],[1,0.5,0],[1,0.75,0],[0.5,1,0],[0,0.75,0],[0,0.5,0],[0,0.25,0]];resizable=0;" parent="QH11MDZz-h4O8WsSvhu4-27" vertex="1">
                        <mxGeometry x="20" y="20" width="200" height="170" as="geometry"/>
                    </mxCell>
                </object>
                <object placeholders="1" c4Type="History" c4Container="Container " c4Technology="NestJS, &#10;PlanetScale, Prisma" c4Description="Allows users to view their &#10;past attempts" label="&lt;font style=&quot;font-size: 16px&quot;&gt;&lt;b&gt;%c4Type%&lt;/font&gt;&lt;div&gt;[%c4Container%:&amp;nbsp;%c4Technology%]&lt;/div&gt;&lt;br&gt;&lt;div&gt;&lt;font style=&quot;font-size: 11px&quot;&gt;&lt;font color=&quot;#E6E6E6&quot;&gt;%c4Description%&lt;/font&gt;&lt;/div&gt;" id="QH11MDZz-h4O8WsSvhu4-8">
                    <mxCell style="shape=hexagon;size=50;perimeter=hexagonPerimeter2;whiteSpace=wrap;html=1;fixedSize=1;rounded=1;labelBackgroundColor=none;fillColor=#23A2D9;fontSize=12;fontColor=#ffffff;align=center;strokeColor=#0E7DAD;metaEdit=1;points=[[0.5,0,0],[1,0.25,0],[1,0.5,0],[1,0.75,0],[0.5,1,0],[0,0.75,0],[0,0.5,0],[0,0.25,0]];resizable=0;" parent="QH11MDZz-h4O8WsSvhu4-27" vertex="1">
                        <mxGeometry x="20" y="230" width="200" height="170" as="geometry"/>
                    </mxCell>
                </object>
                <object placeholders="1" c4Name="User &#10;Service" c4Type="ContainerScopeBoundary" c4Application="" label="&lt;font style=&quot;font-size: 16px&quot;&gt;&lt;b&gt;&lt;div style=&quot;text-align: left&quot;&gt;%c4Name%&lt;/div&gt;&lt;/b&gt;&lt;/font&gt;&lt;div style=&quot;text-align: left&quot;&gt;[%c4Application%]&lt;/div&gt;" id="QH11MDZz-h4O8WsSvhu4-12">
                    <mxCell style="rounded=1;fontSize=11;whiteSpace=wrap;html=1;dashed=1;arcSize=20;fillColor=none;strokeColor=#666666;fontColor=#333333;labelBackgroundColor=none;align=left;verticalAlign=bottom;labelBorderColor=none;spacingTop=0;spacing=10;dashPattern=8 4;metaEdit=1;rotatable=0;perimeter=rectanglePerimeter;noLabel=0;labelPadding=0;allowArrows=0;connectable=0;expand=0;recursiveResize=0;editable=1;pointerEvents=0;absoluteArcSize=1;points=[[0.25,0,0],[0.5,0,0],[0.75,0,0],[1,0.25,0],[1,0.5,0],[1,0.75,0],[0.75,1,0],[0.5,1,0],[0.25,1,0],[0,0.75,0],[0,0.5,0],[0,0.25,0]];" parent="QH11MDZz-h4O8WsSvhu4-27" vertex="1">
                        <mxGeometry width="240" height="460" as="geometry"/>
                    </mxCell>
                </object>
                <mxCell id="QH11MDZz-h4O8WsSvhu4-28" value="" style="group" parent="1" vertex="1" connectable="0">
                    <mxGeometry x="1160" y="450" width="240" height="680" as="geometry"/>
                </mxCell>
                <object placeholders="1" c4Type="Room" c4Container="Container " c4Technology="Redis, Websocket" c4Description="Room where (matched) users join and tackle the same question" label="&lt;font style=&quot;font-size: 16px&quot;&gt;&lt;b&gt;%c4Type%&lt;/font&gt;&lt;div&gt;[%c4Container%:&amp;nbsp;%c4Technology%]&lt;/div&gt;&lt;br&gt;&lt;div&gt;&lt;font style=&quot;font-size: 11px&quot;&gt;&lt;font color=&quot;#E6E6E6&quot;&gt;%c4Description%&lt;/font&gt;&lt;/div&gt;" id="QH11MDZz-h4O8WsSvhu4-5">
                    <mxCell style="shape=hexagon;size=50;perimeter=hexagonPerimeter2;whiteSpace=wrap;html=1;fixedSize=1;rounded=1;labelBackgroundColor=none;fillColor=#23A2D9;fontSize=12;fontColor=#ffffff;align=center;strokeColor=#0E7DAD;metaEdit=1;points=[[0.5,0,0],[1,0.25,0],[1,0.5,0],[1,0.75,0],[0.5,1,0],[0,0.75,0],[0,0.5,0],[0,0.25,0]];resizable=0;" parent="QH11MDZz-h4O8WsSvhu4-28" vertex="1">
                        <mxGeometry x="20" y="30" width="200" height="170" as="geometry"/>
                    </mxCell>
                </object>
                <object placeholders="1" c4Type="Collaboration" c4Container="Container " c4Technology="y-socket, &#10;Monaco editor" c4Description="Allows live collaborative &#10;code-editing" label="&lt;font style=&quot;font-size: 16px&quot;&gt;&lt;b&gt;%c4Type%&lt;/font&gt;&lt;div&gt;[%c4Container%:&amp;nbsp;%c4Technology%]&lt;/div&gt;&lt;br&gt;&lt;div&gt;&lt;font style=&quot;font-size: 11px&quot;&gt;&lt;font color=&quot;#E6E6E6&quot;&gt;%c4Description%&lt;/font&gt;&lt;/div&gt;" id="QH11MDZz-h4O8WsSvhu4-6">
                    <mxCell style="shape=hexagon;size=50;perimeter=hexagonPerimeter2;whiteSpace=wrap;html=1;fixedSize=1;rounded=1;labelBackgroundColor=none;fillColor=#23A2D9;fontSize=12;fontColor=#ffffff;align=center;strokeColor=#0E7DAD;metaEdit=1;points=[[0.5,0,0],[1,0.25,0],[1,0.5,0],[1,0.75,0],[0.5,1,0],[0,0.75,0],[0,0.5,0],[0,0.25,0]];resizable=0;" parent="QH11MDZz-h4O8WsSvhu4-28" vertex="1">
                        <mxGeometry x="20" y="240" width="200" height="170" as="geometry"/>
                    </mxCell>
                </object>
                <object placeholders="1" c4Type="Communication" c4Container="Container " c4Technology="WebRTC, &#10;Websocket" c4Description="Allows users to communicate more naturally." label="&lt;font style=&quot;font-size: 16px&quot;&gt;&lt;b&gt;%c4Type%&lt;/font&gt;&lt;div&gt;[%c4Container%:&amp;nbsp;%c4Technology%]&lt;/div&gt;&lt;br&gt;&lt;div&gt;&lt;font style=&quot;font-size: 11px&quot;&gt;&lt;font color=&quot;#E6E6E6&quot;&gt;%c4Description%&lt;/font&gt;&lt;/div&gt;" id="QH11MDZz-h4O8WsSvhu4-7">
                    <mxCell style="shape=hexagon;size=50;perimeter=hexagonPerimeter2;whiteSpace=wrap;html=1;fixedSize=1;rounded=1;labelBackgroundColor=none;fillColor=#23A2D9;fontSize=12;fontColor=#ffffff;align=center;strokeColor=#0E7DAD;metaEdit=1;points=[[0.5,0,0],[1,0.25,0],[1,0.5,0],[1,0.75,0],[0.5,1,0],[0,0.75,0],[0,0.5,0],[0,0.25,0]];resizable=0;" parent="QH11MDZz-h4O8WsSvhu4-28" vertex="1">
                        <mxGeometry x="20" y="450" width="200" height="170" as="geometry"/>
                    </mxCell>
                </object>
                <object placeholders="1" c4Name="Room Service" c4Type="ContainerScopeBoundary" c4Application="Container" label="&lt;font style=&quot;font-size: 16px&quot;&gt;&lt;b&gt;&lt;div style=&quot;text-align: left&quot;&gt;%c4Name%&lt;/div&gt;&lt;/b&gt;&lt;/font&gt;&lt;div style=&quot;text-align: left&quot;&gt;[%c4Application%]&lt;/div&gt;" id="QH11MDZz-h4O8WsSvhu4-10">
                    <mxCell style="rounded=1;fontSize=11;whiteSpace=wrap;html=1;dashed=1;arcSize=20;fillColor=none;strokeColor=#666666;fontColor=#333333;labelBackgroundColor=none;align=left;verticalAlign=bottom;labelBorderColor=none;spacingTop=0;spacing=10;dashPattern=8 4;metaEdit=1;rotatable=0;perimeter=rectanglePerimeter;noLabel=0;labelPadding=0;allowArrows=0;connectable=0;expand=0;recursiveResize=0;editable=1;pointerEvents=0;absoluteArcSize=1;points=[[0.25,0,0],[0.5,0,0],[0.75,0,0],[1,0.25,0],[1,0.5,0],[1,0.75,0],[0.75,1,0],[0.5,1,0],[0.25,1,0],[0,0.75,0],[0,0.5,0],[0,0.25,0]];" parent="QH11MDZz-h4O8WsSvhu4-28" vertex="1">
                        <mxGeometry width="240" height="680" as="geometry"/>
                    </mxCell>
                </object>
                <mxCell id="QH11MDZz-h4O8WsSvhu4-32" style="edgeStyle=orthogonalEdgeStyle;rounded=0;orthogonalLoop=1;jettySize=auto;html=1;exitX=1;exitY=0.5;exitDx=0;exitDy=0;exitPerimeter=0;entryX=0;entryY=0.5;entryDx=0;entryDy=0;entryPerimeter=0;startArrow=none;startFill=0;endArrow=classic;endFill=1;" parent="1" source="QH11MDZz-h4O8WsSvhu4-3" target="QH11MDZz-h4O8WsSvhu4-4" edge="1">
                    <mxGeometry relative="1" as="geometry"/>
                </mxCell>
                <mxCell id="QH11MDZz-h4O8WsSvhu4-57" value="Serves same &lt;br&gt;question based&lt;br&gt;&amp;nbsp;on criteria" style="edgeStyle=orthogonalEdgeStyle;rounded=0;orthogonalLoop=1;jettySize=auto;html=1;exitX=0.5;exitY=0;exitDx=0;exitDy=0;exitPerimeter=0;startArrow=none;startFill=0;endArrow=oval;endFill=1;" parent="1" source="QH11MDZz-h4O8WsSvhu4-36" edge="1">
                    <mxGeometry x="-0.25" y="-50" relative="1" as="geometry">
                        <mxPoint x="670" y="730" as="targetPoint"/>
                        <mxPoint as="offset"/>
                    </mxGeometry>
                </mxCell>
                <mxCell id="QH11MDZz-h4O8WsSvhu4-59" value="User explores&lt;br&gt;room UI" style="edgeStyle=orthogonalEdgeStyle;rounded=0;orthogonalLoop=1;jettySize=auto;html=1;exitX=1;exitY=0.5;exitDx=0;exitDy=0;exitPerimeter=0;entryX=0.5;entryY=0;entryDx=0;entryDy=0;entryPerimeter=0;dashed=1;startArrow=none;startFill=0;endArrow=classic;endFill=1;" parent="1" source="QH11MDZz-h4O8WsSvhu4-36" target="QH11MDZz-h4O8WsSvhu4-5" edge="1">
                    <mxGeometry x="0.12" y="-20" relative="1" as="geometry">
                        <Array as="points">
                            <mxPoint x="860" y="870"/>
                            <mxPoint x="860" y="420"/>
                            <mxPoint x="1280" y="420"/>
                        </Array>
                        <mxPoint as="offset"/>
                    </mxGeometry>
                </mxCell>
                <object placeholders="1" c4Type="Cache" c4Container="Container " c4Technology="Redis" c4Description="Store temporary data–reset tokens, hourly questions, etc." label="&lt;font style=&quot;font-size: 16px&quot;&gt;&lt;b&gt;%c4Type%&lt;/font&gt;&lt;div&gt;[%c4Container%:&amp;nbsp;%c4Technology%]&lt;/div&gt;&lt;br&gt;&lt;div&gt;&lt;font style=&quot;font-size: 11px&quot;&gt;&lt;font color=&quot;#E6E6E6&quot;&gt;%c4Description%&lt;/font&gt;&lt;/div&gt;" id="QH11MDZz-h4O8WsSvhu4-36">
                    <mxCell style="shape=cylinder3;size=15;whiteSpace=wrap;html=1;boundedLbl=1;rounded=0;labelBackgroundColor=none;fillColor=#23A2D9;fontSize=12;fontColor=#ffffff;align=center;strokeColor=#0E7DAD;metaEdit=1;points=[[0.5,0,0],[1,0.25,0],[1,0.5,0],[1,0.75,0],[0.5,1,0],[0,0.75,0],[0,0.5,0],[0,0.25,0]];resizable=0;" parent="1" vertex="1">
                        <mxGeometry x="550" y="810" width="240" height="120" as="geometry"/>
                    </mxCell>
                </object>
                <mxCell id="QH11MDZz-h4O8WsSvhu4-50" value="Routinely updates &lt;br&gt;question info" style="edgeStyle=orthogonalEdgeStyle;rounded=0;orthogonalLoop=1;jettySize=auto;html=1;exitX=0;exitY=0.5;exitDx=0;exitDy=0;exitPerimeter=0;entryX=1;entryY=0.5;entryDx=0;entryDy=0;entryPerimeter=0;startArrow=none;startFill=0;endArrow=classic;endFill=1;" parent="1" source="QH11MDZz-h4O8WsSvhu4-49" target="QH11MDZz-h4O8WsSvhu4-26" edge="1">
                    <mxGeometry x="-0.2" y="30" relative="1" as="geometry">
                        <mxPoint as="offset"/>
                    </mxGeometry>
                </mxCell>
                <object placeholders="1" c4Type="Question Indexer" c4Container="Container " c4Technology="Cloud Function, NodeJS, PlanetScale, Prisma" c4Description="Indexes questions &#10;from LeetCode" label="&lt;font style=&quot;font-size: 16px&quot;&gt;&lt;b&gt;%c4Type%&lt;/font&gt;&lt;div&gt;[%c4Container%:&amp;nbsp;%c4Technology%]&lt;/div&gt;&lt;br&gt;&lt;div&gt;&lt;font style=&quot;font-size: 11px&quot;&gt;&lt;font color=&quot;#E6E6E6&quot;&gt;%c4Description%&lt;/font&gt;&lt;/div&gt;" id="QH11MDZz-h4O8WsSvhu4-49">
                    <mxCell style="shape=hexagon;size=50;perimeter=hexagonPerimeter2;whiteSpace=wrap;html=1;fixedSize=1;rounded=1;labelBackgroundColor=none;fillColor=#23A2D9;fontSize=12;fontColor=#ffffff;align=center;strokeColor=#0E7DAD;metaEdit=1;points=[[0.5,0,0],[1,0.25,0],[1,0.5,0],[1,0.75,0],[0.5,1,0],[0,0.75,0],[0,0.5,0],[0,0.25,0]];resizable=0;" parent="1" vertex="1">
                        <mxGeometry x="890" y="945" width="200" height="170" as="geometry"/>
                    </mxCell>
                </object>
                <mxCell id="QH11MDZz-h4O8WsSvhu4-55" value="Stores authentication/&lt;br&gt;verification tokens" style="edgeStyle=orthogonalEdgeStyle;rounded=0;orthogonalLoop=1;jettySize=auto;html=1;exitX=0.879;exitY=0.75;exitDx=0;exitDy=0;exitPerimeter=0;entryX=0;entryY=0.5;entryDx=0;entryDy=0;entryPerimeter=0;startArrow=none;startFill=0;endArrow=classic;endFill=1;" parent="1" source="QH11MDZz-h4O8WsSvhu4-3" target="QH11MDZz-h4O8WsSvhu4-36" edge="1">
                    <mxGeometry x="-0.0097" y="65" relative="1" as="geometry">
                        <mxPoint as="offset"/>
                        <Array as="points">
                            <mxPoint x="520" y="608"/>
                            <mxPoint x="520" y="870"/>
                        </Array>
                    </mxGeometry>
                </mxCell>
                <object placeholders="1" c4Name="PeerPrep" c4Type="SystemScopeBoundary" c4Application="Software System" label="&lt;font style=&quot;font-size: 16px&quot;&gt;&lt;b&gt;&lt;div style=&quot;text-align: left&quot;&gt;%c4Name%&lt;/div&gt;&lt;/b&gt;&lt;/font&gt;&lt;div style=&quot;text-align: left&quot;&gt;[%c4Application%]&lt;/div&gt;" id="5">
                    <mxCell style="rounded=1;fontSize=11;whiteSpace=wrap;html=1;dashed=1;arcSize=20;fillColor=none;strokeColor=#666666;fontColor=#333333;labelBackgroundColor=none;align=left;verticalAlign=bottom;labelBorderColor=none;spacingTop=0;spacing=10;dashPattern=8 4;metaEdit=1;rotatable=0;perimeter=rectanglePerimeter;noLabel=0;labelPadding=0;allowArrows=0;connectable=0;expand=0;recursiveResize=0;editable=1;pointerEvents=0;absoluteArcSize=1;points=[[0.25,0,0],[0.5,0,0],[0.75,0,0],[1,0.25,0],[1,0.5,0],[1,0.75,0],[0.75,1,0],[0.5,1,0],[0.25,1,0],[0,0.75,0],[0,0.5,0],[0,0.25,0]];" vertex="1" parent="1">
                        <mxGeometry x="210" y="300" width="1220" height="900" as="geometry"/>
                    </mxCell>
                </object>
                <mxCell id="9" value="H1) Sends editor content &lt;br&gt;(submission)" style="edgeStyle=segmentEdgeStyle;endArrow=classic;html=1;rounded=0;" edge="1" parent="1">
                    <mxGeometry x="-0.6183" y="-20" width="50" height="50" relative="1" as="geometry">
                        <mxPoint x="1280" y="1130" as="sourcePoint"/>
                        <mxPoint x="320" y="860" as="targetPoint"/>
                        <Array as="points">
                            <mxPoint x="1280" y="1170"/>
                            <mxPoint x="320" y="1170"/>
                        </Array>
                        <mxPoint as="offset"/>
                    </mxGeometry>
                </mxCell>
                <mxCell id="10" value="H1) Writes submission &lt;br&gt;into DB" style="edgeStyle=orthogonalEdgeStyle;rounded=0;html=1;entryX=0;entryY=0.5;entryDx=0;entryDy=0;entryPerimeter=0;" edge="1" parent="1" source="QH11MDZz-h4O8WsSvhu4-8" target="QH11MDZz-h4O8WsSvhu4-26">
                    <mxGeometry x="0.484" y="-20" relative="1" as="geometry">
                        <mxPoint x="402" y="870" as="sourcePoint"/>
                        <Array as="points">
                            <mxPoint x="400" y="1030"/>
                        </Array>
                        <mxPoint as="offset"/>
                    </mxGeometry>
                </mxCell>
                <mxCell id="11" value="Legend" style="align=left;fontSize=16;fontStyle=1;strokeColor=none;fillColor=none;fontColor=#4D4D4D;spacingTop=-8;resizable=0;" vertex="1" parent="1">
                    <mxGeometry x="220" y="1230" width="180" height="30" as="geometry"/>
                </mxCell>
                <mxCell id="12" value="" style="shape=table;html=1;whiteSpace=wrap;startSize=0;container=1;collapsible=0;childLayout=tableLayout;fillColor=none;align=left;spacingLeft=10;strokeColor=none;rounded=1;arcSize=11;fontColor=#FFFFFF;resizable=0;points=[[0.25,0,0],[0.5,0,0],[0.75,0,0],[1,0.25,0],[1,0.5,0],[1,0.75,0],[0.75,1,0],[0.5,1,0],[0.25,1,0],[0,0.75,0],[0,0.5,0],[0,0.25,0]];" vertex="1" parent="1">
                    <mxGeometry x="220" y="1260" width="180" height="180" as="geometry"/>
                </mxCell>
                <mxCell id="13" value="Person" style="shape=partialRectangle;html=1;whiteSpace=wrap;connectable=0;fillColor=#1E4074;top=0;left=0;bottom=0;right=0;overflow=hidden;pointerEvents=1;align=left;spacingLeft=10;strokeColor=none;fontColor=#FFFFFF;" vertex="1" parent="12">
                    <mxGeometry width="180" height="30" as="geometry"/>
                </mxCell>
                <mxCell id="14" value="Software System" style="shape=partialRectangle;html=1;whiteSpace=wrap;connectable=0;fillColor=#3162AF;top=0;left=0;bottom=0;right=0;overflow=hidden;pointerEvents=1;align=left;spacingLeft=10;fontColor=#FFFFFF;" vertex="1" parent="12">
                    <mxGeometry y="30" width="180" height="30" as="geometry"/>
                </mxCell>
                <mxCell id="15" value="Container" style="shape=partialRectangle;html=1;whiteSpace=wrap;connectable=0;fillColor=#52A2D8;top=0;left=0;bottom=0;right=0;overflow=hidden;pointerEvents=1;align=left;spacingLeft=10;fontColor=#FFFFFF;" vertex="1" parent="12">
                    <mxGeometry y="60" width="180" height="30" as="geometry"/>
                </mxCell>
                <mxCell id="16" value="Component" style="shape=partialRectangle;html=1;whiteSpace=wrap;connectable=0;fillColor=#7CBEF1;top=0;left=0;bottom=0;right=0;overflow=hidden;pointerEvents=1;align=left;spacingLeft=10;fontColor=#FFFFFF;" vertex="1" parent="12">
                    <mxGeometry y="90" width="180" height="30" as="geometry"/>
                </mxCell>
                <mxCell id="17" value="External Person" style="shape=partialRectangle;html=1;whiteSpace=wrap;connectable=0;fillColor=#6B6477;top=0;left=0;bottom=0;right=0;overflow=hidden;pointerEvents=1;align=left;spacingLeft=10;fontColor=#FFFFFF;" vertex="1" parent="12">
                    <mxGeometry y="120" width="180" height="30" as="geometry"/>
                </mxCell>
                <mxCell id="18" value="External Software System" style="shape=partialRectangle;html=1;whiteSpace=wrap;connectable=0;fillColor=#8B8496;top=0;left=0;bottom=0;right=0;overflow=hidden;pointerEvents=1;align=left;spacingLeft=10;fontColor=#FFFFFF;" vertex="1" parent="12">
                    <mxGeometry y="150" width="180" height="30" as="geometry"/>
                </mxCell>
                <mxCell id="19" value="" style="endArrow=classic;dashed=1;html=1;rounded=0;dashPattern=1 2;endFill=1;" edge="1" parent="1">
                    <mxGeometry width="50" height="50" relative="1" as="geometry">
                        <mxPoint x="430" y="1276" as="sourcePoint"/>
                        <mxPoint x="500" y="1276" as="targetPoint"/>
                    </mxGeometry>
                </mxCell>
                <mxCell id="20" value="Unauthorised&lt;br&gt;users" style="text;html=1;align=center;verticalAlign=middle;resizable=0;points=[];autosize=1;strokeColor=none;fillColor=none;" vertex="1" parent="1">
                    <mxGeometry x="510" y="1260" width="90" height="30" as="geometry"/>
                </mxCell>
                <mxCell id="21" value="" style="endArrow=classic;html=1;rounded=0;endFill=1;" edge="1" parent="1">
                    <mxGeometry width="50" height="50" relative="1" as="geometry">
                        <mxPoint x="430" y="1312" as="sourcePoint"/>
                        <mxPoint x="500" y="1312" as="targetPoint"/>
                    </mxGeometry>
                </mxCell>
                <mxCell id="22" value="Authorised users/&lt;br&gt;system calls" style="text;html=1;align=center;verticalAlign=middle;resizable=0;points=[];autosize=1;strokeColor=none;fillColor=none;" vertex="1" parent="1">
                    <mxGeometry x="500" y="1296" width="110" height="30" as="geometry"/>
                </mxCell>
                <mxCell id="26" value="H2) Gets &lt;br&gt;historical data" style="edgeStyle=orthogonalEdgeStyle;rounded=0;html=1;exitX=0.5;exitY=1;exitDx=0;exitDy=0;exitPerimeter=0;entryX=0.5;entryY=1;entryDx=0;entryDy=0;entryPerimeter=0;endArrow=classic;endFill=1;" edge="1" parent="1" source="QH11MDZz-h4O8WsSvhu4-8" target="QH11MDZz-h4O8WsSvhu4-26">
                    <mxGeometry y="-20" relative="1" as="geometry">
                        <Array as="points">
                            <mxPoint x="360" y="1110"/>
                            <mxPoint x="670" y="1110"/>
                        </Array>
                        <mxPoint as="offset"/>
                    </mxGeometry>
                </mxCell>
                <mxCell id="iErzHPLrqDlp6vIxeZyp-26" value="&quot;Visitor&quot; has no account&lt;br&gt;&quot;User&quot; has an account" style="text;html=1;align=center;verticalAlign=middle;resizable=0;points=[];autosize=1;strokeColor=none;fillColor=none;" vertex="1" parent="1">
                    <mxGeometry x="430" y="1345" width="140" height="30" as="geometry"/>
                </mxCell>
            </root>
        </mxGraphModel>
    </diagram>
    <diagram id="2nRkVvj17SmeaozY0B-_" name="Page-2">
        <mxGraphModel dx="1959" dy="886" grid="1" gridSize="10" guides="1" tooltips="1" connect="1" arrows="1" fold="1" page="1" pageScale="1" pageWidth="1654" pageHeight="1169" math="0" shadow="0">
            <root>
                <mxCell id="C-qCYS2HYXGMY6MTHrph-0"/>
                <mxCell id="C-qCYS2HYXGMY6MTHrph-1" parent="C-qCYS2HYXGMY6MTHrph-0"/>
                <mxCell id="z8GJrnnqjNegY2185agy-6" value="&lt;b&gt;&lt;font style=&quot;font-size: 16px&quot;&gt;Question Service&lt;/font&gt;&lt;/b&gt;" style="rounded=1;whiteSpace=wrap;html=1;verticalAlign=bottom;align=left;spacingLeft=10;arcSize=5;fillColor=#f5f5f5;strokeColor=#666666;spacingBottom=5;fontColor=#333333;" vertex="1" parent="C-qCYS2HYXGMY6MTHrph-1">
                    <mxGeometry x="1004" y="580" width="276" height="400" as="geometry"/>
                </mxCell>
                <mxCell id="z8GJrnnqjNegY2185agy-5" value="&lt;b&gt;&lt;font style=&quot;font-size: 16px&quot;&gt;Room Service&lt;/font&gt;&lt;/b&gt;" style="rounded=1;whiteSpace=wrap;html=1;verticalAlign=bottom;align=left;spacingLeft=10;arcSize=5;fillColor=#ffe6cc;strokeColor=#d79b00;spacingBottom=5;" vertex="1" parent="C-qCYS2HYXGMY6MTHrph-1">
                    <mxGeometry x="1323" y="219" width="238" height="661" as="geometry"/>
                </mxCell>
                <mxCell id="z8GJrnnqjNegY2185agy-4" value="&lt;b&gt;&lt;font style=&quot;font-size: 16px&quot;&gt;User Service&lt;/font&gt;&lt;/b&gt;" style="rounded=1;whiteSpace=wrap;html=1;verticalAlign=bottom;align=left;spacingLeft=10;arcSize=5;fillColor=#fff2cc;strokeColor=#d6b656;spacingBottom=5;" vertex="1" parent="C-qCYS2HYXGMY6MTHrph-1">
                    <mxGeometry x="342" y="219" width="238" height="461" as="geometry"/>
                </mxCell>
                <mxCell id="zoBQboEnptF2O98BlAwB-6" value="Visitor browses &lt;br&gt;questions" style="edgeStyle=orthogonalEdgeStyle;rounded=0;html=1;exitX=0.5;exitY=1;exitDx=0;exitDy=0;exitPerimeter=0;endArrow=classic;endFill=1;dashed=1;entryX=0.7;entryY=0.978;entryDx=0;entryDy=0;entryPerimeter=0;" edge="1" parent="C-qCYS2HYXGMY6MTHrph-1" source="ZFG9Q6AmAtEC69erPQy2-0" target="0TYY5rW2ANuqc1k5zUoV-0">
                    <mxGeometry x="-0.9617" relative="1" as="geometry">
                        <Array as="points">
                            <mxPoint x="192" y="740"/>
                            <mxPoint x="1190" y="740"/>
                        </Array>
                        <mxPoint as="offset"/>
                    </mxGeometry>
                </mxCell>
                <object placeholders="1" c4Name="Visitor/User" c4Type="Person" c4Description="Visitor -&gt; No account&#10;User -&gt; Has account" label="&lt;font style=&quot;font-size: 16px&quot;&gt;&lt;b&gt;%c4Name%&lt;/b&gt;&lt;/font&gt;&lt;div&gt;[%c4Type%]&lt;/div&gt;&lt;br&gt;&lt;div&gt;&lt;font style=&quot;font-size: 11px&quot;&gt;&lt;font color=&quot;#cccccc&quot;&gt;%c4Description%&lt;/font&gt;&lt;/div&gt;" id="ZFG9Q6AmAtEC69erPQy2-0">
                    <mxCell style="html=1;fontSize=11;dashed=0;whitespace=wrap;fillColor=#083F75;strokeColor=#06315C;fontColor=#ffffff;shape=mxgraph.c4.person2;align=center;metaEdit=1;points=[[0.5,0,0],[1,0.5,0],[1,0.75,0],[0.75,1,0],[0.5,1,0],[0.25,1,0],[0,0.75,0],[0,0.5,0]];resizable=0;" vertex="1" parent="C-qCYS2HYXGMY6MTHrph-1">
                        <mxGeometry x="92" y="234" width="200" height="180" as="geometry"/>
                    </mxCell>
                </object>
                <mxCell id="guQscqLX9nLOLGFH7NwH-14" value="Updates&lt;br&gt;routinely" style="edgeStyle=orthogonalEdgeStyle;rounded=0;html=1;exitX=0;exitY=0.5;exitDx=0;exitDy=0;exitPerimeter=0;entryX=0.5;entryY=1;entryDx=0;entryDy=0;entryPerimeter=0;endArrow=classic;endFill=1;" edge="1" parent="C-qCYS2HYXGMY6MTHrph-1" source="WZJSHxDKVsKkNpNlojL--0" target="yEktmHK0kaeMdRau3PdY-0">
                    <mxGeometry x="-0.5944" relative="1" as="geometry">
                        <mxPoint as="offset"/>
                    </mxGeometry>
                </mxCell>
                <object placeholders="1" c4Type="Question Indexer" c4Container="Container " c4Technology="Cloud Function, NodeJS, PlanetScale, Prisma" c4Description="Indexes questions &#10;from LeetCode" label="&lt;font style=&quot;font-size: 16px&quot;&gt;&lt;b&gt;%c4Type%&lt;/font&gt;&lt;div&gt;[%c4Container%:&amp;nbsp;%c4Technology%]&lt;/div&gt;&lt;br&gt;&lt;div&gt;&lt;font style=&quot;font-size: 11px&quot;&gt;&lt;font color=&quot;#E6E6E6&quot;&gt;%c4Description%&lt;/font&gt;&lt;/div&gt;" id="WZJSHxDKVsKkNpNlojL--0">
                    <mxCell style="shape=hexagon;size=50;perimeter=hexagonPerimeter2;whiteSpace=wrap;html=1;fixedSize=1;rounded=1;labelBackgroundColor=none;fillColor=#23A2D9;fontSize=12;fontColor=#ffffff;align=center;strokeColor=#0E7DAD;metaEdit=1;points=[[0.5,0,0],[1,0.25,0],[1,0.5,0],[1,0.75,0],[0.5,1,0],[0,0.75,0],[0,0.5,0],[0,0.25,0]];resizable=0;" vertex="1" parent="C-qCYS2HYXGMY6MTHrph-1">
                        <mxGeometry x="1042" y="759" width="200" height="170" as="geometry"/>
                    </mxCell>
                </object>
                <mxCell id="-lsd4NwGa8TcT23U6Ltr-6" value="Random question &lt;br&gt;data&amp;nbsp;based on &lt;br&gt;matching criteria" style="edgeStyle=orthogonalEdgeStyle;rounded=0;html=1;exitX=0.5;exitY=0;exitDx=0;exitDy=0;exitPerimeter=0;endArrow=oval;endFill=1;" edge="1" parent="C-qCYS2HYXGMY6MTHrph-1" source="0TYY5rW2ANuqc1k5zUoV-0">
                    <mxGeometry x="-0.7057" relative="1" as="geometry">
                        <mxPoint x="1142" y="324" as="targetPoint"/>
                        <mxPoint x="789" y="794" as="sourcePoint"/>
                        <mxPoint as="offset"/>
                    </mxGeometry>
                </mxCell>
                <object placeholders="1" c4Type="Cache" c4Container="Container " c4Technology="Redis" c4Description="Store temporary or &#10;frequently accessed data" label="&lt;font style=&quot;font-size: 16px&quot;&gt;&lt;b&gt;%c4Type%&lt;/font&gt;&lt;div&gt;[%c4Container%:&amp;nbsp;%c4Technology%]&lt;/div&gt;&lt;br&gt;&lt;div&gt;&lt;font style=&quot;font-size: 11px&quot;&gt;&lt;font color=&quot;#E6E6E6&quot;&gt;%c4Description%&lt;/font&gt;&lt;/div&gt;" id="0TYY5rW2ANuqc1k5zUoV-0">
                    <mxCell style="shape=cylinder3;size=15;whiteSpace=wrap;html=1;boundedLbl=1;rounded=0;labelBackgroundColor=none;fillColor=#23A2D9;fontSize=12;fontColor=#ffffff;align=center;strokeColor=#0E7DAD;metaEdit=1;points=[[0.5,0,0],[1,0.25,0],[1,0.5,0],[1,0.75,0],[0.5,1,0],[0,0.75,0],[0,0.5,0],[0,0.25,0]];resizable=0;" vertex="1" parent="C-qCYS2HYXGMY6MTHrph-1">
                        <mxGeometry x="1022" y="589" width="240" height="120" as="geometry"/>
                    </mxCell>
                </object>
                <mxCell id="g152SyW6Z4fgE_QVWTav-1" value="Updates &lt;br&gt;routinely" style="edgeStyle=orthogonalEdgeStyle;rounded=0;html=1;exitX=1;exitY=0.5;exitDx=0;exitDy=0;exitPerimeter=0;endArrow=classic;endFill=1;entryX=0;entryY=0.5;entryDx=0;entryDy=0;entryPerimeter=0;" edge="1" parent="C-qCYS2HYXGMY6MTHrph-1" source="yEktmHK0kaeMdRau3PdY-0" target="0TYY5rW2ANuqc1k5zUoV-0">
                    <mxGeometry x="-0.05" relative="1" as="geometry">
                        <mxPoint x="1012" y="859" as="targetPoint"/>
                        <Array as="points">
                            <mxPoint x="992" y="649"/>
                            <mxPoint x="992" y="649"/>
                        </Array>
                        <mxPoint as="offset"/>
                    </mxGeometry>
                </mxCell>
                <mxCell id="zoBQboEnptF2O98BlAwB-4" value="Get user's &lt;br&gt;historical data" style="edgeStyle=orthogonalEdgeStyle;rounded=0;html=1;exitX=0;exitY=0.5;exitDx=0;exitDy=0;exitPerimeter=0;entryX=0.5;entryY=1;entryDx=0;entryDy=0;entryPerimeter=0;endArrow=classic;endFill=1;" edge="1" parent="C-qCYS2HYXGMY6MTHrph-1" source="yEktmHK0kaeMdRau3PdY-0" target="liRPgQTUHAPtZyfxbhl5-3">
                    <mxGeometry x="-0.6889" relative="1" as="geometry">
                        <mxPoint as="offset"/>
                    </mxGeometry>
                </mxCell>
                <object placeholders="1" c4Type="Main Data" c4Container="Container " c4Technology="PlanetScale" c4Description="Stores user info (auth, history), and &#10;questions from LeetCode" label="&lt;font style=&quot;font-size: 16px&quot;&gt;&lt;b&gt;%c4Type%&lt;/font&gt;&lt;div&gt;[%c4Container%:&amp;nbsp;%c4Technology%]&lt;/div&gt;&lt;br&gt;&lt;div&gt;&lt;font style=&quot;font-size: 11px&quot;&gt;&lt;font color=&quot;#E6E6E6&quot;&gt;%c4Description%&lt;/font&gt;&lt;/div&gt;" id="yEktmHK0kaeMdRau3PdY-0">
                    <mxCell style="shape=cylinder3;size=15;whiteSpace=wrap;html=1;boundedLbl=1;rounded=0;labelBackgroundColor=none;fillColor=#23A2D9;fontSize=12;fontColor=#ffffff;align=center;strokeColor=#0E7DAD;metaEdit=1;points=[[0.5,0,0],[1,0.25,0],[1,0.5,0],[1,0.75,0],[0.5,1,0],[0,0.75,0],[0,0.5,0],[0,0.25,0]];resizable=0;" vertex="1" parent="C-qCYS2HYXGMY6MTHrph-1">
                        <mxGeometry x="702" y="589" width="240" height="120" as="geometry"/>
                    </mxCell>
                </object>
                <mxCell id="-lsd4NwGa8TcT23U6Ltr-2" value="Pair users with &lt;br&gt;matching criteria" style="edgeStyle=orthogonalEdgeStyle;rounded=0;html=1;exitX=1;exitY=0.5;exitDx=0;exitDy=0;exitPerimeter=0;endArrow=classic;endFill=1;" edge="1" parent="C-qCYS2HYXGMY6MTHrph-1" source="-lsd4NwGa8TcT23U6Ltr-0">
                    <mxGeometry x="-0.71" relative="1" as="geometry">
                        <mxPoint x="1322" y="324" as="targetPoint"/>
                        <mxPoint as="offset"/>
                    </mxGeometry>
                </mxCell>
                <object placeholders="1" c4Type="Matching" c4Container="Container " c4Technology="Redis, Websocket" c4Description="Matches users based on difficulty &#10;and/or topics selected" label="&lt;font style=&quot;font-size: 16px&quot;&gt;&lt;b&gt;%c4Type%&lt;/font&gt;&lt;div&gt;[%c4Container%:&amp;nbsp;%c4Technology%]&lt;/div&gt;&lt;br&gt;&lt;div&gt;&lt;font style=&quot;font-size: 11px&quot;&gt;&lt;font color=&quot;#E6E6E6&quot;&gt;%c4Description%&lt;/font&gt;&lt;/div&gt;" id="-lsd4NwGa8TcT23U6Ltr-0">
                    <mxCell style="shape=hexagon;size=50;perimeter=hexagonPerimeter2;whiteSpace=wrap;html=1;fixedSize=1;rounded=1;labelBackgroundColor=none;fillColor=#23A2D9;fontSize=12;fontColor=#ffffff;align=center;strokeColor=#0E7DAD;metaEdit=1;points=[[0.5,0,0],[1,0.25,0],[1,0.5,0],[1,0.75,0],[0.5,1,0],[0,0.75,0],[0,0.5,0],[0,0.25,0]];resizable=0;" vertex="1" parent="C-qCYS2HYXGMY6MTHrph-1">
                        <mxGeometry x="722" y="239" width="200" height="170" as="geometry"/>
                    </mxCell>
                </object>
                <mxCell id="-lsd4NwGa8TcT23U6Ltr-1" style="edgeStyle=orthogonalEdgeStyle;rounded=0;html=1;exitX=1;exitY=0.5;exitDx=0;exitDy=0;exitPerimeter=0;entryX=0;entryY=0.5;entryDx=0;entryDy=0;entryPerimeter=0;endArrow=classic;endFill=1;" edge="1" parent="C-qCYS2HYXGMY6MTHrph-1" source="liRPgQTUHAPtZyfxbhl5-2" target="-lsd4NwGa8TcT23U6Ltr-0">
                    <mxGeometry relative="1" as="geometry"/>
                </mxCell>
                <mxCell id="-lsd4NwGa8TcT23U6Ltr-4" value="View specific &lt;br&gt;submission" style="edgeStyle=orthogonalEdgeStyle;rounded=0;html=1;entryX=0.196;entryY=0.117;entryDx=0;entryDy=0;entryPerimeter=0;endArrow=classic;endFill=1;" edge="1" parent="C-qCYS2HYXGMY6MTHrph-1" source="liRPgQTUHAPtZyfxbhl5-3" target="xePxpz-mD-REtZcBDLoS-1">
                    <mxGeometry x="-0.8574" relative="1" as="geometry">
                        <Array as="points">
                            <mxPoint x="1040" y="534"/>
                            <mxPoint x="1040" y="259"/>
                        </Array>
                        <mxPoint as="offset"/>
                    </mxGeometry>
                </mxCell>
                <mxCell id="zoBQboEnptF2O98BlAwB-7" value="Visitor views &lt;br&gt;specific question or&amp;nbsp;&lt;br&gt;explore room UI" style="endArrow=classic;html=1;rounded=0;edgeStyle=orthogonalEdgeStyle;endFill=1;dashed=1;exitX=0.738;exitY=0;exitDx=0;exitDy=0;exitPerimeter=0;" edge="1" parent="C-qCYS2HYXGMY6MTHrph-1" source="0TYY5rW2ANuqc1k5zUoV-0" target="xePxpz-mD-REtZcBDLoS-1">
                    <mxGeometry x="-0.4431" width="50" height="50" relative="1" as="geometry">
                        <mxPoint x="1170" y="589" as="sourcePoint"/>
                        <mxPoint x="922" y="899" as="targetPoint"/>
                        <Array as="points">
                            <mxPoint x="1199" y="364"/>
                        </Array>
                        <mxPoint as="offset"/>
                    </mxGeometry>
                </mxCell>
                <mxCell id="zoBQboEnptF2O98BlAwB-5" value="User &lt;br&gt;logs in" style="edgeStyle=orthogonalEdgeStyle;rounded=0;html=1;exitX=1;exitY=0.5;exitDx=0;exitDy=0;exitPerimeter=0;endArrow=classic;endFill=1;" edge="1" parent="C-qCYS2HYXGMY6MTHrph-1" source="ZFG9Q6AmAtEC69erPQy2-0">
                    <mxGeometry x="-0.2" relative="1" as="geometry">
                        <mxPoint x="362" y="324" as="targetPoint"/>
                        <mxPoint as="offset"/>
                    </mxGeometry>
                </mxCell>
                <mxCell id="z8GJrnnqjNegY2185agy-3" value="" style="group" vertex="1" connectable="0" parent="C-qCYS2HYXGMY6MTHrph-1">
                    <mxGeometry x="92" y="770" width="430" height="230" as="geometry"/>
                </mxCell>
                <mxCell id="guQscqLX9nLOLGFH7NwH-0" value="" style="whiteSpace=wrap;html=1;" vertex="1" parent="z8GJrnnqjNegY2185agy-3">
                    <mxGeometry width="430" height="230" as="geometry"/>
                </mxCell>
                <mxCell id="guQscqLX9nLOLGFH7NwH-1" value="Legend" style="align=left;fontSize=16;fontStyle=1;strokeColor=none;fillColor=none;fontColor=#4D4D4D;spacingTop=-8;resizable=0;" vertex="1" parent="z8GJrnnqjNegY2185agy-3">
                    <mxGeometry x="10" width="180" height="30" as="geometry"/>
                </mxCell>
                <mxCell id="guQscqLX9nLOLGFH7NwH-2" value="" style="shape=table;html=1;whiteSpace=wrap;startSize=0;container=1;collapsible=0;childLayout=tableLayout;fillColor=none;align=left;spacingLeft=10;strokeColor=none;rounded=1;arcSize=11;fontColor=#FFFFFF;resizable=0;points=[[0.25,0,0],[0.5,0,0],[0.75,0,0],[1,0.25,0],[1,0.5,0],[1,0.75,0],[0.75,1,0],[0.5,1,0],[0.25,1,0],[0,0.75,0],[0,0.5,0],[0,0.25,0]];" vertex="1" parent="z8GJrnnqjNegY2185agy-3">
                    <mxGeometry x="10" y="30" width="180" height="180" as="geometry"/>
                </mxCell>
                <mxCell id="guQscqLX9nLOLGFH7NwH-3" value="Person" style="shape=partialRectangle;html=1;whiteSpace=wrap;connectable=0;fillColor=#1E4074;top=0;left=0;bottom=0;right=0;overflow=hidden;pointerEvents=1;align=left;spacingLeft=10;strokeColor=none;fontColor=#FFFFFF;" vertex="1" parent="guQscqLX9nLOLGFH7NwH-2">
                    <mxGeometry width="180" height="30" as="geometry"/>
                </mxCell>
                <mxCell id="guQscqLX9nLOLGFH7NwH-4" value="Software System" style="shape=partialRectangle;html=1;whiteSpace=wrap;connectable=0;fillColor=#3162AF;top=0;left=0;bottom=0;right=0;overflow=hidden;pointerEvents=1;align=left;spacingLeft=10;fontColor=#FFFFFF;" vertex="1" parent="guQscqLX9nLOLGFH7NwH-2">
                    <mxGeometry y="30" width="180" height="30" as="geometry"/>
                </mxCell>
                <mxCell id="guQscqLX9nLOLGFH7NwH-5" value="Container" style="shape=partialRectangle;html=1;whiteSpace=wrap;connectable=0;fillColor=#52A2D8;top=0;left=0;bottom=0;right=0;overflow=hidden;pointerEvents=1;align=left;spacingLeft=10;fontColor=#FFFFFF;" vertex="1" parent="guQscqLX9nLOLGFH7NwH-2">
                    <mxGeometry y="60" width="180" height="30" as="geometry"/>
                </mxCell>
                <mxCell id="guQscqLX9nLOLGFH7NwH-6" value="Component" style="shape=partialRectangle;html=1;whiteSpace=wrap;connectable=0;fillColor=#7CBEF1;top=0;left=0;bottom=0;right=0;overflow=hidden;pointerEvents=1;align=left;spacingLeft=10;fontColor=#FFFFFF;" vertex="1" parent="guQscqLX9nLOLGFH7NwH-2">
                    <mxGeometry y="90" width="180" height="30" as="geometry"/>
                </mxCell>
                <mxCell id="guQscqLX9nLOLGFH7NwH-7" value="External Person" style="shape=partialRectangle;html=1;whiteSpace=wrap;connectable=0;fillColor=#6B6477;top=0;left=0;bottom=0;right=0;overflow=hidden;pointerEvents=1;align=left;spacingLeft=10;fontColor=#FFFFFF;" vertex="1" parent="guQscqLX9nLOLGFH7NwH-2">
                    <mxGeometry y="120" width="180" height="30" as="geometry"/>
                </mxCell>
                <mxCell id="guQscqLX9nLOLGFH7NwH-8" value="External Software System" style="shape=partialRectangle;html=1;whiteSpace=wrap;connectable=0;fillColor=#8B8496;top=0;left=0;bottom=0;right=0;overflow=hidden;pointerEvents=1;align=left;spacingLeft=10;fontColor=#FFFFFF;" vertex="1" parent="guQscqLX9nLOLGFH7NwH-2">
                    <mxGeometry y="150" width="180" height="30" as="geometry"/>
                </mxCell>
                <mxCell id="guQscqLX9nLOLGFH7NwH-9" value="" style="endArrow=classic;dashed=1;html=1;rounded=0;dashPattern=1 2;endFill=1;" edge="1" parent="z8GJrnnqjNegY2185agy-3">
                    <mxGeometry width="50" height="50" relative="1" as="geometry">
                        <mxPoint x="220" y="46" as="sourcePoint"/>
                        <mxPoint x="290" y="46" as="targetPoint"/>
                    </mxGeometry>
                </mxCell>
                <mxCell id="guQscqLX9nLOLGFH7NwH-10" value="Unauthorised&lt;br&gt;users" style="text;html=1;align=center;verticalAlign=middle;resizable=0;points=[];autosize=1;strokeColor=none;fillColor=none;" vertex="1" parent="z8GJrnnqjNegY2185agy-3">
                    <mxGeometry x="300" y="30" width="90" height="30" as="geometry"/>
                </mxCell>
                <mxCell id="guQscqLX9nLOLGFH7NwH-11" value="" style="endArrow=classic;html=1;rounded=0;endFill=1;" edge="1" parent="z8GJrnnqjNegY2185agy-3">
                    <mxGeometry width="50" height="50" relative="1" as="geometry">
                        <mxPoint x="220" y="82" as="sourcePoint"/>
                        <mxPoint x="290" y="82" as="targetPoint"/>
                    </mxGeometry>
                </mxCell>
                <mxCell id="guQscqLX9nLOLGFH7NwH-12" value="Authorised users/&lt;br&gt;system calls" style="text;html=1;align=center;verticalAlign=middle;resizable=0;points=[];autosize=1;strokeColor=none;fillColor=none;" vertex="1" parent="z8GJrnnqjNegY2185agy-3">
                    <mxGeometry x="290" y="66" width="110" height="30" as="geometry"/>
                </mxCell>
                <mxCell id="guQscqLX9nLOLGFH7NwH-13" value="&quot;Visitor&quot; has no account&lt;br&gt;&quot;User&quot; has an account" style="text;html=1;align=center;verticalAlign=middle;resizable=0;points=[];autosize=1;strokeColor=none;fillColor=none;" vertex="1" parent="z8GJrnnqjNegY2185agy-3">
                    <mxGeometry x="220" y="115" width="140" height="30" as="geometry"/>
                </mxCell>
                <mxCell id="z8GJrnnqjNegY2185agy-0" style="edgeStyle=orthogonalEdgeStyle;rounded=0;html=1;exitX=0.5;exitY=1;exitDx=0;exitDy=0;exitPerimeter=0;entryX=0.5;entryY=0;entryDx=0;entryDy=0;entryPerimeter=0;endArrow=none;endFill=0;" edge="1" parent="C-qCYS2HYXGMY6MTHrph-1" source="liRPgQTUHAPtZyfxbhl5-2" target="liRPgQTUHAPtZyfxbhl5-3">
                    <mxGeometry relative="1" as="geometry"/>
                </mxCell>
                <object placeholders="1" c4Type="Authentication" c4Container="Container " c4Technology="NestJS, JWT, Nodemailer, Redis" c4Description="User login, signup, &#10;reset/change password" label="&lt;font style=&quot;font-size: 16px&quot;&gt;&lt;b&gt;%c4Type%&lt;/font&gt;&lt;div&gt;[%c4Container%:&amp;nbsp;%c4Technology%]&lt;/div&gt;&lt;br&gt;&lt;div&gt;&lt;font style=&quot;font-size: 11px&quot;&gt;&lt;font color=&quot;#E6E6E6&quot;&gt;%c4Description%&lt;/font&gt;&lt;/div&gt;" id="liRPgQTUHAPtZyfxbhl5-2">
                    <mxCell style="shape=hexagon;size=50;perimeter=hexagonPerimeter2;whiteSpace=wrap;html=1;fixedSize=1;rounded=1;labelBackgroundColor=none;fillColor=#23A2D9;fontSize=12;fontColor=#ffffff;align=center;strokeColor=#0E7DAD;metaEdit=1;points=[[0.5,0,0],[1,0.25,0],[1,0.5,0],[1,0.75,0],[0.5,1,0],[0,0.75,0],[0,0.5,0],[0,0.25,0]];resizable=0;" vertex="1" parent="C-qCYS2HYXGMY6MTHrph-1">
                        <mxGeometry x="362" y="239" width="200" height="170" as="geometry"/>
                    </mxCell>
                </object>
                <object placeholders="1" c4Type="History" c4Container="Container " c4Technology="NestJS, &#10;PlanetScale, Prisma" c4Description="Allows users to view their &#10;past attempts" label="&lt;font style=&quot;font-size: 16px&quot;&gt;&lt;b&gt;%c4Type%&lt;/font&gt;&lt;div&gt;[%c4Container%:&amp;nbsp;%c4Technology%]&lt;/div&gt;&lt;br&gt;&lt;div&gt;&lt;font style=&quot;font-size: 11px&quot;&gt;&lt;font color=&quot;#E6E6E6&quot;&gt;%c4Description%&lt;/font&gt;&lt;/div&gt;" id="liRPgQTUHAPtZyfxbhl5-3">
                    <mxCell style="shape=hexagon;size=50;perimeter=hexagonPerimeter2;whiteSpace=wrap;html=1;fixedSize=1;rounded=1;labelBackgroundColor=none;fillColor=#23A2D9;fontSize=12;fontColor=#ffffff;align=center;strokeColor=#0E7DAD;metaEdit=1;points=[[0.5,0,0],[1,0.25,0],[1,0.5,0],[1,0.75,0],[0.5,1,0],[0,0.75,0],[0,0.5,0],[0,0.25,0]];resizable=0;" vertex="1" parent="C-qCYS2HYXGMY6MTHrph-1">
                        <mxGeometry x="362" y="449" width="200" height="170" as="geometry"/>
                    </mxCell>
                </object>
                <mxCell id="z8GJrnnqjNegY2185agy-1" style="edgeStyle=orthogonalEdgeStyle;rounded=0;html=1;exitX=0.5;exitY=1;exitDx=0;exitDy=0;exitPerimeter=0;entryX=0.5;entryY=0;entryDx=0;entryDy=0;entryPerimeter=0;endArrow=none;endFill=0;" edge="1" parent="C-qCYS2HYXGMY6MTHrph-1" source="xePxpz-mD-REtZcBDLoS-1" target="xePxpz-mD-REtZcBDLoS-2">
                    <mxGeometry relative="1" as="geometry"/>
                </mxCell>
                <object placeholders="1" c4Type="Room" c4Container="Container " c4Technology="Redis, Websocket" c4Description="Room where (matched) users join &#10;and tackle the same question" label="&lt;font style=&quot;font-size: 16px&quot;&gt;&lt;b&gt;%c4Type%&lt;/font&gt;&lt;div&gt;[%c4Container%:&amp;nbsp;%c4Technology%]&lt;/div&gt;&lt;br&gt;&lt;div&gt;&lt;font style=&quot;font-size: 11px&quot;&gt;&lt;font color=&quot;#E6E6E6&quot;&gt;%c4Description%&lt;/font&gt;&lt;/div&gt;" id="xePxpz-mD-REtZcBDLoS-1">
                    <mxCell style="shape=hexagon;size=50;perimeter=hexagonPerimeter2;whiteSpace=wrap;html=1;fixedSize=1;rounded=1;labelBackgroundColor=none;fillColor=#23A2D9;fontSize=12;fontColor=#ffffff;align=center;strokeColor=#0E7DAD;metaEdit=1;points=[[0.5,0,0],[1,0.25,0],[1,0.5,0],[1,0.75,0],[0.5,1,0],[0,0.75,0],[0,0.5,0],[0,0.25,0]];resizable=0;" vertex="1" parent="C-qCYS2HYXGMY6MTHrph-1">
                        <mxGeometry x="1342" y="239" width="200" height="170" as="geometry"/>
                    </mxCell>
                </object>
                <mxCell id="z8GJrnnqjNegY2185agy-2" style="edgeStyle=orthogonalEdgeStyle;rounded=0;html=1;exitX=0.5;exitY=1;exitDx=0;exitDy=0;exitPerimeter=0;entryX=0.5;entryY=0;entryDx=0;entryDy=0;entryPerimeter=0;endArrow=none;endFill=0;" edge="1" parent="C-qCYS2HYXGMY6MTHrph-1" source="xePxpz-mD-REtZcBDLoS-2" target="xePxpz-mD-REtZcBDLoS-3">
                    <mxGeometry relative="1" as="geometry"/>
                </mxCell>
                <object placeholders="1" c4Type="Collaboration" c4Container="Container " c4Technology="y-socket, &#10;Monaco editor" c4Description="Allows live collaborative &#10;code-editing" label="&lt;font style=&quot;font-size: 16px&quot;&gt;&lt;b&gt;%c4Type%&lt;/font&gt;&lt;div&gt;[%c4Container%:&amp;nbsp;%c4Technology%]&lt;/div&gt;&lt;br&gt;&lt;div&gt;&lt;font style=&quot;font-size: 11px&quot;&gt;&lt;font color=&quot;#E6E6E6&quot;&gt;%c4Description%&lt;/font&gt;&lt;/div&gt;" id="xePxpz-mD-REtZcBDLoS-2">
                    <mxCell style="shape=hexagon;size=50;perimeter=hexagonPerimeter2;whiteSpace=wrap;html=1;fixedSize=1;rounded=1;labelBackgroundColor=none;fillColor=#23A2D9;fontSize=12;fontColor=#ffffff;align=center;strokeColor=#0E7DAD;metaEdit=1;points=[[0.5,0,0],[1,0.25,0],[1,0.5,0],[1,0.75,0],[0.5,1,0],[0,0.75,0],[0,0.5,0],[0,0.25,0]];resizable=0;" vertex="1" parent="C-qCYS2HYXGMY6MTHrph-1">
                        <mxGeometry x="1342" y="449" width="200" height="170" as="geometry"/>
                    </mxCell>
                </object>
                <object placeholders="1" c4Type="Communication" c4Container="Container " c4Technology="WebRTC, &#10;Websocket" c4Description="Allows users to communicate &#10;more naturally." label="&lt;font style=&quot;font-size: 16px&quot;&gt;&lt;b&gt;%c4Type%&lt;/font&gt;&lt;div&gt;[%c4Container%:&amp;nbsp;%c4Technology%]&lt;/div&gt;&lt;br&gt;&lt;div&gt;&lt;font style=&quot;font-size: 11px&quot;&gt;&lt;font color=&quot;#E6E6E6&quot;&gt;%c4Description%&lt;/font&gt;&lt;/div&gt;" id="xePxpz-mD-REtZcBDLoS-3">
                    <mxCell style="shape=hexagon;size=50;perimeter=hexagonPerimeter2;whiteSpace=wrap;html=1;fixedSize=1;rounded=1;labelBackgroundColor=none;fillColor=#23A2D9;fontSize=12;fontColor=#ffffff;align=center;strokeColor=#0E7DAD;metaEdit=1;points=[[0.5,0,0],[1,0.25,0],[1,0.5,0],[1,0.75,0],[0.5,1,0],[0,0.75,0],[0,0.5,0],[0,0.25,0]];resizable=0;" vertex="1" parent="C-qCYS2HYXGMY6MTHrph-1">
                        <mxGeometry x="1342" y="659" width="200" height="170" as="geometry"/>
                    </mxCell>
                </object>
            </root>
        </mxGraphModel>
    </diagram>
</mxfile>